# xmcd
#
# Track frame offsets: 
#        150
#        15352
#        28237
#        47840
#        66016
#        78460
#        97242
#        117412
#        135806
#        154657
#        175301
#        194017
#        215953
#        228468
#        244436
#        265673
#        283754
#
# Disc length: 3982 seconds
#
# Revision: 0
# Processed by: cddbd v1.5.2PL0 Copyright (c) Steve Scherf et al.
# Submitted via: ExactAudioCopy v0.99pb4
#
DISCID=fb0f8c11
DTITLE=Savage-C - The Garbage Pail Kid
DYEAR=2011
DGENRE=Rap
TTITLE0=The Garbage Pail Kid
TTITLE1=Robert Downey
TTITLE2=Higher Than I've Eber Been (aka Ricky Ricardo)
TTITLE3=Jerry Maguire
TTITLE4=Jack Burton (aka Chinese Fireworks) Feat K Dinero
TTITLE5=James Bond
TTITLE6=18 Grand
TTITLE7=Heath Ledger
TTITLE8=Drunk Exercise
TTITLE9=Fight Club
TTITLE10=Jim Morrison Feat Shiesty
TTITLE11=Drowning Feat Mista Cane
TTITLE12=Dumb and Dumber
TTITLE13=Fraggie Rock Feat K Dinero
TTITLE14=Stevie Wonder
TTITLE15=Orenthal James
TTITLE16=Xanax Feat K Dinero
EXTD=
EXTT0=
EXTT1=
EXTT2=
EXTT3=
EXTT4=
EXTT5=
EXTT6=
EXTT7=
EXTT8=
EXTT9=
EXTT10=
EXTT11=
EXTT12=
EXTT13=
EXTT14=
EXTT15=
EXTT16=
PLAYORDER=
